<svg width="129" height="83" viewBox="0 0 129 83" fill="none" xmlns="http://www.w3.org/2000/svg">
<path d="M6.11719 68C5.15625 68 4.67578 67.5195 4.67578 66.5586C4.67578 62.7148 4.6875 58.8594 4.71094 54.9922C4.75781 51.125 4.78125 47.2695 4.78125 43.4258C4.78125 43.0977 4.55859 42.9453 4.11328 42.9688C3.69141 42.9688 3.1875 42.9922 2.60156 43.0391C2.03906 43.0859 1.53516 43.0273 1.08984 42.8633C0.667969 42.6992 0.457031 42.2656 0.457031 41.5625V37.4492C0.457031 36.4883 0.9375 36.0078 1.89844 36.0078H4.35938C4.64062 36.0078 4.78125 35.8672 4.78125 35.5859C4.78125 34.9062 4.76953 34.2266 4.74609 33.5469C4.74609 32.8672 4.74609 32.1875 4.74609 31.5078C4.74609 29 5.12109 26.6797 5.87109 24.5469C6.64453 22.4141 7.875 20.7031 9.5625 19.4141C11.2734 18.1016 13.5234 17.4453 16.3125 17.4453C16.9688 17.4453 17.6367 17.4805 18.3164 17.5508C19.0195 17.5977 19.6875 17.6914 20.3203 17.832C21.0703 17.9961 21.4453 18.3828 21.4453 18.9922C21.4453 19.1328 21.3398 19.5898 21.1289 20.3633C20.9414 21.1367 20.7305 21.9219 20.4961 22.7188C20.2852 23.5156 20.1445 24.0312 20.0742 24.2656C19.9805 24.5937 19.8516 24.8516 19.6875 25.0391C19.5234 25.2266 19.2422 25.3203 18.8438 25.3203C18.5391 25.3203 18.2227 25.2969 17.8945 25.25C17.5664 25.1797 17.2383 25.1445 16.9102 25.1445C15.7617 25.1445 14.9062 25.5312 14.3438 26.3047C13.8047 27.0781 13.4531 28.0039 13.2891 29.082C13.1484 30.1367 13.0781 31.0977 13.0781 31.9648V35.5859C13.0781 35.8672 13.2188 36.0078 13.5 36.0078H18.1758C19.1367 36.0078 19.6172 36.5 19.6172 37.4844V41.5625C19.6172 42.5234 19.1367 43.0039 18.1758 43.0039H13.5C13.2188 43.0039 13.0781 43.1445 13.0781 43.4258C13.0781 47.2695 13.0781 51.125 13.0781 54.9922C13.1016 58.8594 13.1133 62.7148 13.1133 66.5586C13.1133 67.5195 12.6328 68 11.6719 68H6.11719ZM37.0898 68.668C34.043 68.668 31.4883 67.9414 29.4258 66.4883C27.3633 65.0352 25.8047 63.1133 24.75 60.7227C23.7188 58.3086 23.2031 55.6953 23.2031 52.8828V52.3203C23.25 49.3672 23.8594 46.5898 25.0312 43.9883C26.2266 41.3867 27.9492 39.2891 30.1992 37.6953C32.4492 36.0781 35.168 35.2695 38.3555 35.2695C40.3242 35.2695 42.1523 35.6445 43.8398 36.3945C45.5508 37.1211 47.1445 38.1172 48.6211 39.3828C48.7852 39.5469 48.9258 39.6289 49.043 39.6289C49.3242 39.6289 49.4531 39.3359 49.4297 38.75C49.4297 38.1641 49.5117 37.5781 49.6758 36.9922C49.8633 36.4062 50.332 36.1133 51.082 36.1133H56.0391C57 36.1133 57.4805 36.5938 57.4805 37.5547C57.4805 38.5625 57.4688 39.5703 57.4453 40.5781C57.4453 41.5859 57.4453 42.5938 57.4453 43.6016C57.4453 46.1797 57.457 48.7695 57.4805 51.3711C57.5273 53.9727 57.5625 56.5625 57.5859 59.1406C57.6094 60.3594 57.6328 61.5898 57.6562 62.832C57.7031 64.0508 57.7266 65.2812 57.7266 66.5234C57.7266 67.5078 57.2461 68 56.2852 68H50.7656C50.1328 68 49.7227 67.8008 49.5352 67.4023C49.3477 66.9805 49.2656 66.4883 49.2891 65.9258C49.3125 65.3633 49.3125 64.8594 49.2891 64.4141C49.2891 64.3438 49.2773 64.2266 49.2539 64.0625C49.2305 63.8984 49.1602 63.8164 49.043 63.8164C48.9492 63.8164 48.8555 63.8516 48.7617 63.9219C48.6914 63.9922 48.6211 64.0508 48.5508 64.0977C46.9102 65.4805 45.1406 66.5938 43.2422 67.4375C41.3438 68.2578 39.293 68.668 37.0898 68.668ZM40.6758 61.1797C42.3398 61.1797 43.875 60.8398 45.2812 60.1602C46.7109 59.457 47.8242 58.3555 48.6211 56.8555C48.668 56.7617 48.7734 56.5273 48.9375 56.1523C49.125 55.7539 49.2188 55.5078 49.2188 55.4141C49.2188 54.5938 49.207 53.7734 49.1836 52.9531C49.1836 52.1328 49.1836 51.3242 49.1836 50.5273C49.1836 50.1523 49.1953 49.7422 49.2188 49.2969C49.2422 48.8281 49.2305 48.418 49.1836 48.0664C49.1602 47.9023 49.0664 47.6562 48.9023 47.3281C48.7617 47 48.6562 46.7656 48.5859 46.625C47.7656 45.1484 46.6055 44.0469 45.1055 43.3203C43.6055 42.5938 42.0352 42.2305 40.3945 42.2305C38.6602 42.2305 37.1367 42.6641 35.8242 43.5312C34.5117 44.3984 33.4805 45.5469 32.7305 46.9766C32.0039 48.3828 31.6406 49.9297 31.6406 51.6172C31.6406 53.3047 32.0273 54.875 32.8008 56.3281C33.5742 57.7812 34.6406 58.9531 36 59.8438C37.3828 60.7344 38.9414 61.1797 40.6758 61.1797ZM70.1719 79.6719C69.8438 79.6719 69.4922 79.6133 69.1172 79.4961C68.7422 79.3789 68.5547 79.0977 68.5547 78.6523C68.5547 78.4648 68.5781 78.2891 68.625 78.125C68.6953 77.9609 68.7656 77.7969 68.8359 77.6328C69.7266 75.5938 70.6406 73.5664 71.5781 71.5508C72.5391 69.5352 73.4648 67.5078 74.3555 65.4688V65.1523C72.4102 60.6523 70.4648 56.1523 68.5195 51.6523C66.5742 47.1523 64.6406 42.6406 62.7188 38.1172C62.5547 37.7422 62.4727 37.4141 62.4727 37.1328C62.4727 36.6875 62.6484 36.4062 63 36.2891C63.375 36.1719 63.7266 36.1133 64.0547 36.1133H70.207C70.582 36.1133 70.8516 36.1953 71.0156 36.3594C71.2031 36.5 71.3789 36.7227 71.543 37.0273C71.9414 37.8242 72.293 38.6562 72.5977 39.5234C72.9258 40.3906 73.2422 41.2344 73.5469 42.0547C74.3672 44.0938 75.1641 46.1445 75.9375 48.207C76.7344 50.2461 77.5664 52.2734 78.4336 54.2891C78.4805 54.3594 78.5391 54.4648 78.6094 54.6055C78.6797 54.7227 78.7617 54.7812 78.8555 54.7812C78.9492 54.7812 79.0312 54.7227 79.1016 54.6055C79.1719 54.4883 79.2188 54.3945 79.2422 54.3242C80.1797 52.3086 81.082 50.2695 81.9492 48.207C82.8164 46.1211 83.6953 44.0586 84.5859 42.0195C84.9375 41.1992 85.2773 40.3555 85.6055 39.4883C85.957 38.5977 86.3438 37.7539 86.7656 36.957C87.0938 36.3945 87.5391 36.1133 88.1016 36.1133H92.4609C92.8125 36.1133 93.1641 36.1719 93.5156 36.2891C93.8672 36.4062 94.043 36.6875 94.043 37.1328C94.043 37.4141 93.9609 37.7422 93.7969 38.1172C92.0859 42.2891 90.3398 46.4492 88.5586 50.5977C86.8008 54.7461 85.0547 58.9062 83.3203 63.0781C82.5938 64.8359 81.8555 66.582 81.1055 68.3164C80.3789 70.0742 79.6406 71.8203 78.8906 73.5547C78.5156 74.4219 78.1406 75.3008 77.7656 76.1914C77.4141 77.082 77.0391 77.9492 76.6406 78.793C76.3594 79.3789 75.9141 79.6719 75.3047 79.6719H70.1719Z" fill="white"/>
<rect width="7.72045" height="17.5777" rx="3.86023" transform="matrix(0.963834 0.258258 -0.262921 0.966637 93.4854 10.2734)" fill="#1AB700"/>
<rect width="7.72045" height="17.5777" rx="3.86023" transform="matrix(0.258258 0.963834 -0.968593 0.255622 116.438 27.1133)" fill="#1AB700"/>
<rect width="7.72045" height="17.5777" rx="3.86023" transform="matrix(0.705575 -0.705575 0.705672 0.711015 68.3018 21.0234)" fill="#1AB700"/>
<rect width="7.72045" height="17.5777" rx="3.86023" transform="matrix(0.705575 -0.705575 0.705672 0.711015 95.1338 48.3652)" fill="#1AB700"/>
</svg>
